<?xml version="1.0" encoding="UTF-8"?>
<svg version="1.1" xmlns="http://www.w3.org/2000/svg" width="512" height="512">
<path d="M0 0 C0.87873779 -0.00012085 1.75747559 -0.0002417 2.6628418 -0.00036621 C16.99633264 0.02763652 30.62322792 1.15289506 44.625 4.375 C46.04520265 4.66846428 47.46575565 4.96024024 48.88671875 5.25 C97.54418454 15.71961278 140.82634054 49.11665168 167.5625 90.41796875 C183.67858278 116.02224148 200.17477994 152.26768476 197.625 183.375 C195.41759319 186.34358157 194.13902627 187.20365791 190.625 188.375 C190.63660156 189.24382812 190.64820313 190.11265625 190.66015625 191.0078125 C190.67369141 192.73644531 190.67369141 192.73644531 190.6875 194.5 C190.69910156 195.63695312 190.71070313 196.77390625 190.72265625 197.9453125 C190.630327 201.1879156 190.23889906 204.19432612 189.625 207.375 C190.388125 207.4575 191.15125 207.54 191.9375 207.625 C195.27735078 208.55705138 195.92543417 209.39576108 197.625 212.375 C200.73560827 252.19078584 176.06801647 297.13640984 151.14599609 326.33642578 C136.82937892 342.68769155 121.10488339 356.03112792 102.625 367.375 C101.73296875 367.95636719 100.8409375 368.53773438 99.921875 369.13671875 C59.05094107 394.7706817 4.80286961 401.11577749 -41.78662109 390.84326172 C-76.04715342 382.80684056 -105.56011278 367.03084349 -132.375 344.375 C-136.27785767 345.96167578 -138.71020982 348.50850481 -141.625 351.5 C-142.51703125 352.41007812 -143.4090625 353.32015625 -144.328125 354.2578125 C-145.00359375 354.95648438 -145.6790625 355.65515625 -146.375 356.375 C-146.01148438 356.79910156 -145.64796875 357.22320312 -145.2734375 357.66015625 C-144.21120482 358.89942771 -143.15431389 360.14328923 -142.1015625 361.390625 C-141.01053241 362.64456909 -139.88349504 363.8688125 -138.7109375 365.046875 C-134.27099329 369.63992074 -132.69663325 373.99259024 -132.375 380.375 C-133.03524058 391.66098743 -143.46921934 399.76817706 -150.90332031 407.19384766 C-151.96225411 408.25877691 -153.02078063 409.32411129 -154.07893372 410.38981628 C-156.93589332 413.26433593 -159.79920753 416.13244113 -162.66431904 418.99883318 C-164.45824015 420.79418172 -166.25072718 422.59094942 -168.04271698 424.38822556 C-174.30614819 430.6701214 -180.57468549 436.94686884 -186.84814453 443.21875 C-192.67740089 449.04680477 -198.49540633 454.88592539 -204.30825162 460.73034441 C-209.31617697 465.76449067 -214.33185431 470.79082469 -219.35354495 475.8112396 C-222.34528821 478.8024751 -225.33390487 481.79667235 -228.31473541 484.79878616 C-231.11960411 487.62313641 -233.93407441 490.43756455 -236.75592613 493.24494362 C-237.7840366 494.27097742 -238.80880879 495.30037011 -239.82977486 496.33351326 C-248.53009575 505.13076588 -256.64041936 512.41152177 -269.4375 512.75 C-270.68660156 512.79898438 -271.93570313 512.84796875 -273.22265625 512.8984375 C-283.29831474 512.21793043 -290.51130844 505.09288886 -297.25415039 498.25756836 C-298.68291176 496.81712575 -300.14077754 495.41168731 -301.60351562 494.00585938 C-309.13990588 486.46946912 -314.29225372 478.68367475 -314.9375 467.8125 C-314.39031993 458.71888835 -311.618817 452.35461646 -305.37481689 445.7052002 C-304.64529182 444.92525405 -304.64529182 444.92525405 -303.90102887 444.12955141 C-298.92546661 438.83677843 -293.82366525 433.66875658 -288.69042969 428.52929688 C-287.67536291 427.50958291 -286.6604865 426.48967942 -285.64578247 425.46960449 C-282.92950218 422.74040117 -280.21006796 420.01436396 -277.48956203 417.2893734 C-275.78493216 415.58178644 -274.08087975 413.87362519 -272.37699127 412.16529846 C-267.02977996 406.80447999 -261.68062164 401.44561596 -256.32854724 396.08965254 C-250.17697703 389.93358503 -244.03203997 383.7709945 -237.89266276 377.60276747 C-233.12230675 372.81078126 -228.34618806 368.02458876 -223.56567311 363.24273729 C-220.71990232 360.39592163 -217.8765828 357.54675921 -215.03926849 354.69151306 C-212.37652124 352.01225662 -209.70666748 349.34028966 -207.0312767 346.67366028 C-206.05436829 345.69752007 -205.07999486 344.71883487 -204.1084404 343.73736572 C-191.39023736 330.89705925 -191.39023736 330.89705925 -182.53125 330.30078125 C-173.61135995 330.60780645 -168.68783193 334.3839696 -162.77807617 340.61425781 C-161.63101819 341.85622897 -160.50111477 343.11400837 -159.375 344.375 C-154.81469176 340.57024578 -150.52410608 336.62530379 -146.375 332.375 C-147.79762331 328.09166678 -149.89691898 325.36447761 -152.875 322 C-182.12092074 287.94470263 -196.9167146 242.79117666 -196.6875 198.25 C-196.68426727 197.10863586 -196.68426727 197.10863586 -196.68096924 195.94421387 C-196.43705597 141.98721607 -174.69631329 93.62029383 -137.24829102 55.21704102 C-134.09020083 52.11163368 -130.76273606 49.22585496 -127.375 46.375 C-126.72144531 45.82489258 -126.06789062 45.27478516 -125.39453125 44.70800781 C-98.92513601 22.77511537 -67.25794264 8.31507358 -33.375 2.375 C-32.39563477 2.19839844 -31.41626953 2.02179687 -30.40722656 1.83984375 C-20.26234504 0.1869099 -10.25901728 -0.02172907 0 0 Z " fill="#020203" transform="translate(314.375,-0.375)"/>
<path d="M0 0 C0.87873779 -0.00012085 1.75747559 -0.0002417 2.6628418 -0.00036621 C16.99633264 0.02763652 30.62322792 1.15289506 44.625 4.375 C46.04520265 4.66846428 47.46575565 4.96024024 48.88671875 5.25 C97.54418454 15.71961278 140.82634054 49.11665168 167.5625 90.41796875 C183.67858278 116.02224148 200.17477994 152.26768476 197.625 183.375 C195.82564278 185.88124756 194.4361808 186.98249316 191.6875 188.3125 C188.65515731 188.40438917 187.05277162 187.09999563 184.625 185.375 C181.85972515 182.60972515 181.7460856 179.61975607 181.109375 175.90234375 C180.82453823 174.34564463 180.53937004 172.78900613 180.25390625 171.23242188 C179.81685803 168.79864894 179.38404576 166.36427718 178.95849609 163.9284668 C173.86872155 135.01962395 161.96770121 108.34410187 143.625 85.375 C142.93019531 84.47652344 142.23539062 83.57804687 141.51953125 82.65234375 C128.23002995 65.82865813 112.07107693 52.22426691 93.625 41.375 C92.94405273 40.9742627 92.26310547 40.57352539 91.56152344 40.16064453 C72.34135133 29.04938928 51.56950176 21.68604084 29.625 18.375 C28.56007324 18.20363525 28.56007324 18.20363525 27.47363281 18.02880859 C3.93581777 14.31838703 -21.50265728 15.15665764 -44.42578125 21.81738281 C-46.42206852 22.38846499 -48.42683563 22.91170206 -50.4375 23.4296875 C-83.39307307 32.17505426 -116.02266952 52.60061707 -137.375 79.375 C-138.16519531 80.36242187 -138.95539063 81.34984375 -139.76953125 82.3671875 C-145.09062695 89.1063698 -149.95731756 96.00210991 -154.375 103.375 C-155.02210938 104.43074219 -155.66921875 105.48648438 -156.3359375 106.57421875 C-164.33437671 120.01220952 -169.81123635 134.44980258 -174.375 149.375 C-174.66117188 150.29667969 -174.94734375 151.21835938 -175.2421875 152.16796875 C-184.17240698 184.06818577 -182.84957744 220.06114087 -172.375 251.375 C-172.16649414 252.02452637 -171.95798828 252.67405273 -171.74316406 253.34326172 C-168.239084 264.22930435 -163.77317997 274.30396341 -158.375 284.375 C-157.77042969 285.53515625 -157.16585937 286.6953125 -156.54296875 287.890625 C-146.69484135 306.05264522 -132.58090139 323.47581746 -116.375 336.375 C-114.9828125 337.50615234 -114.9828125 337.50615234 -113.5625 338.66015625 C-75.19435705 369.34985654 -29.06607065 381.25451272 19.625 378.375 C60.08023685 373.76317082 97.88509527 355.82015375 127.16455078 327.77246094 C128.45341035 326.53918909 129.75505807 325.31931172 131.05859375 324.1015625 C142.81223124 312.8298032 151.61676363 299.46420547 159.625 285.375 C159.99222168 284.73401367 160.35944336 284.09302734 160.73779297 283.43261719 C171.09366525 265.0362297 177.09447642 244.60868961 180.23657227 223.83349609 C180.65510168 221.18447588 181.11924698 218.54932424 181.6171875 215.9140625 C181.76913574 215.10662598 181.92108398 214.29918945 182.07763672 213.46728516 C182.88472388 210.3822107 183.88422539 209.00464977 186.625 207.375 C190.125 206.8125 190.125 206.8125 193.625 207.375 C196.27728005 209.95256794 197.52995768 211.50892682 197.9375 215.22265625 C192.79379658 268.13850521 167.62262987 316.18640197 126.98046875 350.51953125 C119.28936581 356.79365477 111.07425696 362.1884256 102.625 367.375 C101.73296875 367.95636719 100.8409375 368.53773438 99.921875 369.13671875 C59.05094107 394.7706817 4.80286961 401.11577749 -41.78662109 390.84326172 C-76.04715342 382.80684056 -105.56011278 367.03084349 -132.375 344.375 C-136.27785767 345.96167578 -138.71020982 348.50850481 -141.625 351.5 C-142.51703125 352.41007812 -143.4090625 353.32015625 -144.328125 354.2578125 C-145.00359375 354.95648438 -145.6790625 355.65515625 -146.375 356.375 C-146.01148438 356.79910156 -145.64796875 357.22320312 -145.2734375 357.66015625 C-144.21120482 358.89942771 -143.15431389 360.14328923 -142.1015625 361.390625 C-141.01053241 362.64456909 -139.88349504 363.8688125 -138.7109375 365.046875 C-134.27099329 369.63992074 -132.69663325 373.99259024 -132.375 380.375 C-133.03524058 391.66098743 -143.46921934 399.76817706 -150.90332031 407.19384766 C-151.96225411 408.25877691 -153.02078063 409.32411129 -154.07893372 410.38981628 C-156.93589332 413.26433593 -159.79920753 416.13244113 -162.66431904 418.99883318 C-164.45824015 420.79418172 -166.25072718 422.59094942 -168.04271698 424.38822556 C-174.30614819 430.6701214 -180.57468549 436.94686884 -186.84814453 443.21875 C-192.67740089 449.04680477 -198.49540633 454.88592539 -204.30825162 460.73034441 C-209.31617697 465.76449067 -214.33185431 470.79082469 -219.35354495 475.8112396 C-222.34528821 478.8024751 -225.33390487 481.79667235 -228.31473541 484.79878616 C-231.11960411 487.62313641 -233.93407441 490.43756455 -236.75592613 493.24494362 C-237.7840366 494.27097742 -238.80880879 495.30037011 -239.82977486 496.33351326 C-248.53009575 505.13076588 -256.64041936 512.41152177 -269.4375 512.75 C-270.68660156 512.79898438 -271.93570313 512.84796875 -273.22265625 512.8984375 C-283.29831474 512.21793043 -290.51130844 505.09288886 -297.25415039 498.25756836 C-298.68291176 496.81712575 -300.14077754 495.41168731 -301.60351562 494.00585938 C-309.13990588 486.46946912 -314.29225372 478.68367475 -314.9375 467.8125 C-314.39031993 458.71888835 -311.618817 452.35461646 -305.37481689 445.7052002 C-304.64529182 444.92525405 -304.64529182 444.92525405 -303.90102887 444.12955141 C-298.92546661 438.83677843 -293.82366525 433.66875658 -288.69042969 428.52929688 C-287.67536291 427.50958291 -286.6604865 426.48967942 -285.64578247 425.46960449 C-282.92950218 422.74040117 -280.21006796 420.01436396 -277.48956203 417.2893734 C-275.78493216 415.58178644 -274.08087975 413.87362519 -272.37699127 412.16529846 C-267.02977996 406.80447999 -261.68062164 401.44561596 -256.32854724 396.08965254 C-250.17697703 389.93358503 -244.03203997 383.7709945 -237.89266276 377.60276747 C-233.12230675 372.81078126 -228.34618806 368.02458876 -223.56567311 363.24273729 C-220.71990232 360.39592163 -217.8765828 357.54675921 -215.03926849 354.69151306 C-212.37652124 352.01225662 -209.70666748 349.34028966 -207.0312767 346.67366028 C-206.05436829 345.69752007 -205.07999486 344.71883487 -204.1084404 343.73736572 C-191.39023736 330.89705925 -191.39023736 330.89705925 -182.53125 330.30078125 C-173.61135995 330.60780645 -168.68783193 334.3839696 -162.77807617 340.61425781 C-161.63101819 341.85622897 -160.50111477 343.11400837 -159.375 344.375 C-154.81469176 340.57024578 -150.52410608 336.62530379 -146.375 332.375 C-147.79762331 328.09166678 -149.89691898 325.36447761 -152.875 322 C-182.12092074 287.94470263 -196.9167146 242.79117666 -196.6875 198.25 C-196.68426727 197.10863586 -196.68426727 197.10863586 -196.68096924 195.94421387 C-196.43705597 141.98721607 -174.69631329 93.62029383 -137.24829102 55.21704102 C-134.09020083 52.11163368 -130.76273606 49.22585496 -127.375 46.375 C-126.72144531 45.82489258 -126.06789062 45.27478516 -125.39453125 44.70800781 C-98.92513601 22.77511537 -67.25794264 8.31507358 -33.375 2.375 C-32.39563477 2.19839844 -31.41626953 2.02179687 -30.40722656 1.83984375 C-20.26234504 0.1869099 -10.25901728 -0.02172907 0 0 Z " fill="#000001" transform="translate(314.375,-0.375)"/>
<path d="M0 0 C1.6828219 1.50689052 3.35039324 3.03103823 5 4.57421875 C7.05359899 6.48619023 9.16656471 8.27147698 11.328125 10.05859375 C16.28775991 14.40200148 20.26626855 19.46386982 24.265625 24.68359375 C24.67603027 25.21903809 25.08643555 25.75448242 25.50927734 26.30615234 C43.26161147 49.69111001 54.72395889 78.08313374 55.265625 107.68359375 C55.33922821 109.19534259 55.41349464 110.70705924 55.48828125 112.21875 C56.66265128 143.91120681 47.24099669 176.15800479 28.265625 201.68359375 C25.02306229 200.24407039 22.76832225 198.42257944 20.140625 196.05859375 C15.75121478 192.51681102 11.39866797 190.14832212 6.23046875 187.921875 C5.45145706 187.58129562 4.67244537 187.24071625 3.86982727 186.88981628 C-5.64767711 182.78125108 -15.34398116 179.13848306 -25.046875 175.49609375 C-26.87843917 174.80452347 -28.70982003 174.1124675 -30.54101562 173.41992188 C-34.03129219 172.10031919 -37.52241128 170.78298648 -41.01416016 169.46728516 C-46.93197043 167.23471582 -52.83576664 164.96642119 -58.734375 162.68359375 C-59.80624741 149.46383402 -59.80624741 149.46383402 -57.38671875 145.4453125 C-56.1864707 144.34002913 -54.94572062 143.27740264 -53.671875 142.2578125 C-46.27861014 136.2507848 -41.69237946 124.64982371 -40.41796875 115.3828125 C-39.734375 113.68359375 -39.734375 113.68359375 -37.4765625 112.62890625 C-36.53039062 112.35820312 -35.58421875 112.0875 -34.609375 111.80859375 C-27.57049321 109.44404072 -22.88310468 106.37065691 -19.296875 99.74609375 C-16.81312487 93.41306853 -16.76419727 86.346432 -17.734375 79.68359375 C-18.394375 78.68585938 -19.054375 77.688125 -19.734375 76.66015625 C-22.94060539 71.55790637 -22.2434925 65.59440321 -22.23321533 59.76315308 C-22.24475721 39.06582537 -26.01573792 20.95293219 -39.734375 4.68359375 C-40.85585938 3.24693359 -40.85585938 3.24693359 -42 1.78125 C-44.7496033 -1.5070093 -47.8574582 -3.93434552 -51.359375 -6.37890625 C-51.96894043 -6.80937256 -52.57850586 -7.23983887 -53.20654297 -7.68334961 C-60.77480677 -12.89702051 -68.95044323 -17.32842875 -78.296875 -17.62890625 C-79.06128906 -17.66628906 -79.82570313 -17.70367187 -80.61328125 -17.7421875 C-82.92576286 -17.53721721 -82.92576286 -17.53721721 -84.0703125 -15.32299805 C-85.734375 -13.31640625 -85.734375 -13.31640625 -87.93920898 -12.79882812 C-88.77782471 -12.79431641 -89.61644043 -12.78980469 -90.48046875 -12.78515625 C-91.40021484 -12.78 -92.31996094 -12.77484375 -93.26757812 -12.76953125 C-94.22599609 -12.785 -95.18441406 -12.80046875 -96.171875 -12.81640625 C-97.12642578 -12.8009375 -98.08097656 -12.78546875 -99.06445312 -12.76953125 C-106.11868506 -12.8090231 -106.11868506 -12.8090231 -109.19921875 -15.34765625 C-109.70582031 -15.99734375 -110.21242188 -16.64703125 -110.734375 -17.31640625 C-121.54171822 -17.31640625 -131.41605006 -10.56124843 -139.734375 -4.31640625 C-140.46914063 -3.57390625 -141.20390625 -2.83140625 -141.9609375 -2.06640625 C-143.734375 -0.31640625 -143.734375 -0.31640625 -145.734375 -0.31640625 C-145.99863281 0.26367188 -146.26289063 0.84375 -146.53515625 1.44140625 C-147.78346702 3.77538143 -149.20964782 5.54466979 -150.921875 7.55859375 C-163.15311457 23.08384147 -165.17073861 39.47392071 -165.81835938 58.52978516 C-165.90404516 60.92279859 -166.00619705 63.31471828 -166.109375 65.70703125 C-166.12822754 66.43417328 -166.14708008 67.16131531 -166.16650391 67.91049194 C-166.36099533 72.3310767 -167.18499894 75.07818959 -169.734375 78.68359375 C-172.00742205 85.3970118 -171.56048584 93.47008773 -168.6953125 99.91015625 C-164.9133507 106.88987436 -159.95563143 109.73638178 -152.734375 112.68359375 C-151.99960937 112.80734375 -151.26484375 112.93109375 -150.5078125 113.05859375 C-149.92257812 113.26484375 -149.33734375 113.47109375 -148.734375 113.68359375 C-147.93359375 115.4765625 -147.93359375 115.4765625 -147.421875 117.87109375 C-144.66521443 128.29846198 -139.40355252 140.35499395 -130.07421875 146.41015625 C-127.734375 148.68359375 -127.734375 148.68359375 -127.24609375 152.13671875 C-127.40885417 155.65234375 -127.57161458 159.16796875 -127.734375 162.68359375 C-129.47146729 163.27515259 -129.47146729 163.27515259 -131.24365234 163.87866211 C-144.02368245 168.26976854 -156.63605834 173.0300711 -169.20166016 177.99975586 C-172.38739392 179.25715271 -175.57831633 180.50073106 -178.76953125 181.74414062 C-180.83366265 182.55775877 -182.89747663 183.37218278 -184.9609375 184.1875 C-185.89652496 184.55017471 -186.83211243 184.91284943 -187.79605103 185.28651428 C-196.03443316 188.57333595 -204.23750942 192.48325665 -210.359375 199.05859375 C-211.01164062 199.74695313 -211.66390625 200.4353125 -212.3359375 201.14453125 C-212.79742187 201.65242187 -213.25890625 202.1603125 -213.734375 202.68359375 C-228.05849491 189.5531505 -235.36706483 166.08808205 -239.734375 147.68359375 C-239.92128906 146.92481934 -240.10820312 146.16604492 -240.30078125 145.38427734 C-242.06553211 137.20665964 -242.03843878 129.08417667 -241.99511719 120.75976562 C-241.98442524 118.32005791 -241.99504956 115.88109127 -242.0078125 113.44140625 C-242.04591734 74.45323024 -226.31507815 39.80968661 -199.734375 11.68359375 C-198.93773437 10.81089844 -198.14109375 9.93820313 -197.3203125 9.0390625 C-146.97926102 -44.1156127 -55.26474072 -46.81713035 0 0 Z " fill="#ABD4FA" transform="translate(408.734375,81.31640625)"/>
<path d="M0 0 C2.47185011 2.31433633 4.90352423 4.66636124 7.31738281 7.04101562 C8.54642294 8.24132494 9.80491015 9.41141829 11.07128906 10.57226562 C22.45076257 21.19310757 31.40096365 34.9135172 38.82128906 48.50976562 C39.16498535 49.1367334 39.50868164 49.76370117 39.86279297 50.40966797 C49.42091659 68.08614155 55.43408708 86.60066879 58.84472656 106.35742188 C59.0185083 107.35668701 59.19229004 108.35595215 59.37133789 109.38549805 C59.70714791 111.35092255 60.03037704 113.31854754 60.33959961 115.28833008 C60.48953369 116.18382568 60.63946777 117.07932129 60.79394531 118.00195312 C60.98355835 119.19860596 60.98355835 119.19860596 61.17700195 120.41943359 C61.93902469 122.89174836 62.80230804 123.91680812 64.82128906 125.50976562 C65.81128906 125.83976563 66.80128906 126.16976562 67.82128906 126.50976562 C69.10825121 132.94457635 69.74304669 140.15318271 67.82128906 146.50976562 C65.38378906 148.19726562 65.38378906 148.19726562 62.82128906 149.50976562 C60.70727575 152.68078559 60.40416135 154.22486362 59.92675781 157.92773438 C59.77867676 159.00941895 59.6305957 160.09110352 59.47802734 161.20556641 C59.24575439 162.93395752 59.24575439 162.93395752 59.00878906 164.69726562 C57.50204701 175.11901694 55.45015658 184.62824301 51.82128906 194.50976562 C51.36299061 195.8296388 50.90598901 197.14996289 50.45019531 198.47070312 C43.3654114 218.58564633 32.93472769 237.47290261 18.82128906 253.50976562 C18.10328125 254.33734375 17.38527344 255.16492188 16.64550781 256.01757812 C3.94166876 270.41375808 -9.64584179 282.68621872 -26.17871094 292.50976562 C-27.23316406 293.15558594 -28.28761719 293.80140625 -29.37402344 294.46679688 C-48.35271989 305.77187461 -69.52818612 312.47030479 -91.17871094 316.50976562 C-92.32919922 316.76463745 -92.32919922 316.76463745 -93.50292969 317.0246582 C-101.3818226 318.66536793 -109.02640855 318.77406258 -117.05371094 318.69726562 C-118.32601562 318.69662109 -119.59832031 318.69597656 -120.90917969 318.6953125 C-166.36210312 318.48638691 -209.92265098 303.0397325 -243.17871094 271.50976562 C-244.86457078 270.02872988 -246.55209979 268.5495922 -248.24121094 267.07226562 C-280.51481336 237.80552057 -300.80347371 192.40588969 -303.38525391 149.04052734 C-303.4811142 145.54833191 -303.50795922 142.06571792 -303.49121094 138.57226562 C-303.48557129 137.31663818 -303.47993164 136.06101074 -303.47412109 134.76733398 C-302.85082416 86.09154627 -282.86356573 40.75393091 -248.83374023 6.11767578 C-221.14425666 -20.78348055 -183.00993424 -41.10928279 -144.17871094 -44.49023438 C-143.20289063 -44.59851562 -142.22707031 -44.70679688 -141.22167969 -44.81835938 C-90.35483348 -49.78097852 -38.04097185 -34.76445019 0 0 Z M-168.17871094 -20.80273438 C-169.41488159 -20.42036621 -169.41488159 -20.42036621 -170.67602539 -20.03027344 C-193.590706 -12.69512183 -213.19217995 -0.80017029 -230.85449219 15.43164062 C-232.45014543 16.85834234 -234.09341882 18.23299099 -235.77246094 19.56054688 C-239.39697592 22.49663937 -242.21833933 25.91915865 -245.17871094 29.50976562 C-245.92121094 30.40308594 -246.66371094 31.29640625 -247.42871094 32.21679688 C-273.7158424 65.03358439 -286.99781281 105.54114632 -285.17871094 147.50976562 C-285.14825684 148.21504395 -285.11780273 148.92032227 -285.08642578 149.64697266 C-282.96663396 188.75036649 -263.33385617 226.02541011 -236.17871094 253.50976562 C-235.71480957 253.98833008 -235.2509082 254.46689453 -234.77294922 254.95996094 C-207.88573654 282.40560738 -167.12707017 300.14268029 -128.71069336 300.81396484 C-108.97018688 300.87033313 -89.32459471 299.2424477 -70.55371094 292.88476562 C-69.50973145 292.53212646 -68.46575195 292.1794873 -67.39013672 291.81616211 C-44.98092053 284.06944781 -23.46825425 272.02442779 -7.17871094 254.50976562 C-2.17871094 249.50976562 -2.17871094 249.50976562 -0.44433594 247.91601562 C18.10378972 230.406585 29.52155004 205.53807324 36.82128906 181.50976562 C37.19253906 180.30835938 37.56378906 179.10695312 37.94628906 177.86914062 C48.54669632 141.23538024 43.53202941 99.47798295 26.82128906 65.50976562 C26.36133545 64.56327148 26.36133545 64.56327148 25.89208984 63.59765625 C13.05468581 37.48362129 -6.97109618 15.51791444 -31.17871094 -0.49023438 C-32.23703125 -1.19921875 -33.29535156 -1.90820312 -34.38574219 -2.63867188 C-47.84735532 -11.30323668 -62.80855135 -17.15977644 -78.17871094 -21.49023438 C-79.04979492 -21.73580078 -79.92087891 -21.98136719 -80.81835938 -22.234375 C-94.54871754 -25.91848526 -107.97393944 -26.96485168 -122.11621094 -26.99023438 C-122.88164215 -26.99472595 -123.64707336 -26.99921753 -124.43569946 -27.00384521 C-139.28590426 -27.03932672 -153.96918939 -25.2680933 -168.17871094 -20.80273438 Z " fill="#529DFB" transform="translate(436.1787109375,60.490234375)"/>
<path d="M0 0 C5.54936583 2.18094847 9.72060125 6.44198588 12.13012695 11.8371582 C13.64202869 18.96796129 13.27544284 26.34392113 13.04931641 33.58984375 C12.94255712 37.02690634 12.9058754 40.45915899 12.88208008 43.89770508 C12.85032115 46.10024113 12.8146481 48.30272497 12.7746582 50.50512695 C12.75877151 51.52301804 12.74288483 52.54090912 12.72651672 53.58964539 C12.41052138 63.10321527 9.47575002 70.02951316 4.13012695 77.8371582 C3.55262695 78.7034082 2.97512695 79.5696582 2.38012695 80.4621582 C-0.95414851 83.98167119 -4.69185364 86.40885075 -8.86987305 88.8371582 C-9.92948242 89.46557617 -9.92948242 89.46557617 -11.01049805 90.10668945 C-20.07673268 94.59225659 -31.72680937 94.24593135 -41.4128418 92.0246582 C-52.02334398 88.07145687 -60.74673683 79.89069246 -65.86987305 69.8371582 C-69.90806705 59.27716037 -69.21375509 48.18536544 -69.05737305 37.0871582 C-69.04229409 35.21477317 -69.02861139 33.34237635 -69.01635742 31.4699707 C-68.98361744 26.92540387 -68.932014 22.38141421 -68.86987305 17.8371582 C-67.72494385 17.75582642 -67.72494385 17.75582642 -66.55688477 17.67285156 C-45.26171845 16.06557885 -25.67966844 12.84541285 -6.78857422 2.23876953 C-2.36399267 -0.20587324 -2.36399267 -0.20587324 0 0 Z " fill="#F0CFA4" transform="translate(342.869873046875,133.162841796875)"/>
<path d="M0 0 C1 2 1 2 1.25 4.4375 C1.75624456 7.14928655 1.75624456 7.14928655 4.07421875 8.47265625 C6.83292866 9.91278385 9.6195612 11.07135345 12.51977539 12.19287109 C26.9491247 17.89424898 38.53688938 28.65315608 44.8125 43 C48.20084272 51.32630294 49.30524882 59.1263182 49.125 68.0625 C49.11597656 68.92810547 49.10695313 69.79371094 49.09765625 70.68554688 C49.07439723 72.79048779 49.03854008 74.89528342 49 77 C48.34 77 47.68 77 47 77 C46.66871094 76.02675781 46.33742188 75.05351562 45.99609375 74.05078125 C43.77242304 68.87178044 39.93784785 65.18774715 36.0625 61.1875 C35.34642578 60.42501953 34.63035156 59.66253906 33.89257812 58.87695312 C28.13635353 52.78726427 28.13635353 52.78726427 20.25 50.6171875 C15.42077454 50.74885307 12.07512769 52.70072763 8 55.125 C-9.81112648 65.08715549 -27.24898892 69.46523065 -47.70117188 69.35864258 C-54.14790507 69.3991739 -54.14790507 69.3991739 -59.65234375 72.4140625 C-61.99017726 74.75527642 -61.99017726 74.75527642 -63 77 C-63.99 77 -64.98 77 -66 77 C-66.62230335 56.18741025 -62.6950631 39.35879746 -48.3125 23.8125 C-41.4484795 17.22728884 -32.71443484 13.04398033 -23.9609375 9.53125 C-21.15759246 7.65193649 -21.15759246 7.65193649 -20 1 C-10.1 0.505 -10.1 0.505 0 0 Z " fill="#566473" transform="translate(323,67)"/>
<path d="M0 0 C2.99943905 1.34572887 5.08076179 2.83537101 7.39160156 5.16455078 C8.35214447 6.12532028 8.35214447 6.12532028 9.33209229 7.10549927 C10.01140808 7.79513763 10.69072388 8.484776 11.390625 9.1953125 C12.09523865 9.90275604 12.79985229 10.61019958 13.52581787 11.33908081 C15.7719539 13.59639862 18.01103009 15.86057633 20.25 18.125 C21.77297717 19.65800953 23.29640939 21.19056715 24.8203125 22.72265625 C28.55216815 26.47654573 32.27825351 30.23608914 36 34 C34.40204078 37.95557463 31.65927905 40.61635776 28.67993164 43.56298828 C28.13825851 44.10655975 27.59658539 44.65013123 27.03849792 45.21017456 C25.25056342 47.00180726 23.45554123 48.78614838 21.66015625 50.5703125 C20.41430309 51.81497322 19.16881973 53.06000419 17.9236908 54.3053894 C15.31492111 56.91259588 12.7028286 59.51641075 10.08813477 62.11767578 C6.73600702 65.45280522 3.39050835 68.79448823 0.04724979 72.13850594 C-2.52349047 74.70897434 -5.09682835 77.27682862 -7.67105293 79.84380722 C-8.90563331 81.07520483 -10.13960844 82.30720956 -11.37296867 83.53982925 C-13.09632517 85.26101855 -14.82293415 86.97887518 -16.55053711 88.69580078 C-17.06025055 89.20596741 -17.56996399 89.71613403 -18.09512329 90.24176025 C-21.6211688 93.73597322 -24.31266572 96.16485307 -29.3125 96.8125 C-30.42044922 96.97685547 -30.42044922 96.97685547 -31.55078125 97.14453125 C-39.23873861 96.69085594 -44.20732592 90.2068409 -49.25 85.0625 C-50.47203125 83.84530273 -50.47203125 83.84530273 -51.71875 82.60351562 C-60.26828459 73.97612931 -60.26828459 73.97612931 -60.375 67.125 C-60.40335938 66.30257812 -60.43171875 65.48015625 -60.4609375 64.6328125 C-59.41019967 58.63114048 -54.60028605 54.31400337 -50.40527344 50.17822266 C-49.85848938 49.63114655 -49.31170532 49.08407043 -48.74835205 48.52041626 C-46.95673045 46.73017757 -45.1581509 44.94711012 -43.359375 43.1640625 C-42.10912101 41.91754233 -40.85931058 40.67057713 -39.60992432 39.42318726 C-36.33298272 36.153853 -33.05007796 32.89057176 -29.76586914 29.62854004 C-26.41058308 26.29377498 -23.06100716 22.95328516 -19.7109375 19.61328125 C-13.14618201 13.06992451 -6.57510874 6.53295202 0 0 Z " fill="#FD6A6A" transform="translate(76,400)"/>
<path d="M0 0 C1.51400917 2.46064378 2.75411976 4.79068663 3.96875 7.39453125 C4.33093628 8.13829514 4.69312256 8.88205902 5.06628418 9.64836121 C6.2243326 12.03016834 7.36341499 14.42038503 8.5 16.8125 C9.63853759 19.1928379 10.78116 21.57091995 11.93371582 23.94450378 C12.6502972 25.42171067 13.35862194 26.90295946 14.05749512 28.3886261 C15.90760398 32.21832981 17.62401173 35.27064333 21 38 C23.44662489 38.51755632 23.44662489 38.51755632 26 38.3125 C26.845625 38.28800781 27.69125 38.26351562 28.5625 38.23828125 C30.80514412 38.01904841 32.83652229 37.61599018 35 37 C37.18980431 40.28470646 37.21633672 40.68839824 36.75390625 44.3671875 C36.58979248 45.6970166 36.58979248 45.6970166 36.42236328 47.05371094 C35.65293378 52.42103769 34.81779876 57.7747743 33.9375 63.125 C33.75123047 64.27226562 33.56496094 65.41953125 33.37304688 66.6015625 C32.91805826 69.40149245 32.46032487 72.20094331 32 75 C25.79500844 74.5239767 19.95893611 73.74607144 14 71.9375 C13.28215332 71.72125977 12.56430664 71.50501953 11.82470703 71.28222656 C-10.92025313 64.13901837 -30.69759391 51.6594458 -48.25 35.6875 C-48.91902344 35.08848877 -49.58804688 34.48947754 -50.27734375 33.87231445 C-50.89222656 33.29956787 -51.50710937 32.72682129 -52.140625 32.13671875 C-52.69266602 31.62842529 -53.24470703 31.12013184 -53.81347656 30.59643555 C-55 29 -55 29 -55 25 C-53.75 23.25390625 -53.75 23.25390625 -52 21.5625 C-51.443125 21.00691406 -50.88625 20.45132812 -50.3125 19.87890625 C-44.58168265 15.22261716 -38.33993128 12.0639252 -31.484375 9.4140625 C-30.31699799 8.95500015 -30.31699799 8.95500015 -29.1260376 8.48666382 C-27.49741283 7.8491385 -25.86715795 7.21576278 -24.23535156 6.58642578 C-21.73703282 5.61998382 -19.24746401 4.63305496 -16.7578125 3.64453125 C-15.16715212 3.02479422 -13.57602211 2.40626093 -11.984375 1.7890625 C-11.24266052 1.49335358 -10.50094604 1.19764465 -9.73675537 0.89297485 C-3.58123506 -1.44852174 -3.58123506 -1.44852174 0 0 Z " fill="#E1E7F5" transform="translate(260,269)"/>
<path d="M0 0 C4.53506925 0.72523491 8.70164785 2.2564304 12.9765625 3.87890625 C13.74245697 4.16926254 14.50835144 4.45961884 15.29745483 4.7587738 C16.91717538 5.37587537 18.53594235 5.99548485 20.15380859 6.61743164 C21.78773318 7.24230045 23.42443926 7.85994902 25.06396484 8.4699707 C48.14205743 17.05722217 48.14205743 17.05722217 55 27 C47.14906633 46.19621353 18.03447194 59.8251066 0.23095703 67.60498047 C-10.05408104 71.85331241 -20.99651208 74.49918441 -32 76 C-32.88526399 71.82159974 -33.75765126 67.64077544 -34.6184082 63.45727539 C-34.91276655 62.03564918 -35.21057931 60.61473354 -35.51196289 59.19458008 C-35.94555884 57.14843721 -36.36650455 55.10002719 -36.78515625 53.05078125 C-37.04176025 51.82012939 -37.29836426 50.58947754 -37.56274414 49.3215332 C-38.19666548 44.50606705 -37.68841466 42.03262199 -35 38 C-34.01 38.33 -33.02 38.66 -32 39 C-29.65608572 39.30867597 -29.65608572 39.30867597 -27.125 39.375 C-26.28195312 39.42398438 -25.43890625 39.47296875 -24.5703125 39.5234375 C-20.81328618 38.7583288 -19.5166528 36.86514511 -17 34 C-15.41153715 31.44422781 -14.09880861 28.78328114 -12.79296875 26.07421875 C-12.42271072 25.32662796 -12.0524527 24.57903717 -11.67097473 23.80879211 C-10.50027318 21.43958855 -9.34373544 19.06379143 -8.1875 16.6875 C-7.39220459 15.07180823 -6.5959898 13.45656867 -5.79882812 11.84179688 C-3.85521089 7.89968276 -1.92425881 3.95159725 0 0 Z " fill="#E2E8F6" transform="translate(371,268)"/>
<path d="M0 0 C0 0.66 0 1.32 0 2 C-1.94921875 3.375 -1.94921875 3.375 -4.6875 5 C-16.55302169 12.36847378 -27.05429521 21.2306163 -37 31 C-37.53625 31.5254541 -38.0725 32.0509082 -38.625 32.59228516 C-74.63861899 68.37865474 -90.80679894 117.53311299 -91.375 167.375 C-91.375 180.20546022 -89.70994128 192.47762297 -87 205 C-86.84515137 205.72074707 -86.69030273 206.44149414 -86.53076172 207.18408203 C-82.78341687 223.97866078 -76.10923944 239.88877484 -68 255 C-67.39671875 256.15757812 -66.7934375 257.31515625 -66.171875 258.5078125 C-50.73547768 286.98083108 -26.48161843 309.94254998 0.98828125 326.625 C3 328 3 328 4 330 C-14.0734784 324.46002635 -30.45727788 311.83981267 -44 299 C-45.68585984 297.51896425 -47.37338885 296.03982657 -49.0625 294.5625 C-81.33610242 265.29575495 -101.62476278 219.89612407 -104.20654297 176.53076172 C-104.30240326 173.03856628 -104.32924828 169.5559523 -104.3125 166.0625 C-104.30686035 164.80687256 -104.3012207 163.55124512 -104.29541016 162.25756836 C-103.67211322 113.58178065 -83.68485479 68.24416528 -49.6550293 33.60791016 C-15.06225326 0 -15.06225326 0 0 0 Z " fill="#328AEA" transform="translate(237,33)"/>
<path d="M0 0 C0 0.66 0 1.32 0 2 C-0.99 2 -1.98 2 -3 2 C-3 2.66 -3 3.32 -3 4 C-4.64472489 5.16692772 -6.34493336 6.25570999 -8.0625 7.3125 C-40.3103085 28.32878133 -63.18071715 63.22710465 -71.55834961 100.68408203 C-73.80300567 112.45456704 -74.44088547 124.05406376 -74.4375 136 C-74.4385675 136.80748688 -74.43963501 137.61497375 -74.44073486 138.44692993 C-74.41467202 152.16800027 -72.99159683 164.81587425 -69 178 C-68.77006348 178.80373047 -68.54012695 179.60746094 -68.30322266 180.43554688 C-65.08047718 191.61138046 -60.45549497 201.7525162 -55 212 C-54.01 213.98 -54.01 213.98 -53 216 C-55.31 217.98 -57.62 219.96 -60 222 C-69.5741406 207.71477435 -76.67160331 193.33529304 -82 177 C-82.47953125 175.55753906 -82.47953125 175.55753906 -82.96875 174.0859375 C-86.56565822 162.75567661 -87.32215764 151.87738744 -87.26074219 140.07617188 C-87.25005024 137.63646416 -87.26067456 135.19749752 -87.2734375 132.7578125 C-87.31154234 93.76963649 -71.58070315 59.12609286 -45 31 C-44.20335937 30.12730469 -43.40671875 29.25460938 -42.5859375 28.35546875 C-33.67031462 18.94154066 -13.87721971 0 0 0 Z " fill="#88BFFB" transform="translate(254,62)"/>
<path d="M0 0 C4.23235548 1.45026563 6.77547292 4.29294874 9.90380859 7.41479492 C10.89557602 8.39014946 10.89557602 8.39014946 11.90737915 9.38520813 C13.29921551 10.76119986 14.68578021 12.14254168 16.06738281 13.52880859 C18.18742415 15.64763236 20.33507063 17.73542889 22.48583984 19.82299805 C23.83528276 21.16430189 25.18300005 22.50734453 26.52880859 23.85229492 C27.49734268 24.78545784 27.49734268 24.78545784 28.48544312 25.73747253 C32.77096501 30.11376968 32.77096501 30.11376968 32.99047852 34.10009766 C31.59632432 37.50696581 29.98803505 39.36680102 27.34521484 41.92651367 C26.44609375 42.80952148 25.54697266 43.6925293 24.62060547 44.60229492 C23.20231445 45.95774414 23.20231445 45.95774414 21.75537109 47.34057617 C20.79524442 48.27560256 19.83624692 49.21178992 18.87841797 50.14916992 C16.5357572 52.43296987 14.18223438 54.70428707 11.81787109 56.96557617 C6.91313209 52.85227746 2.29591829 48.58015156 -2.20947266 44.03588867 C-2.84325333 43.40069305 -3.477034 42.76549744 -4.13002014 42.11105347 C-6.12894297 40.10658901 -8.12433674 38.09865403 -10.11962891 36.09057617 C-11.48463024 34.72055228 -12.84986251 33.35075844 -14.21533203 31.98120117 C-17.54027101 28.64531074 -20.86205244 25.30630581 -24.18212891 21.96557617 C-17.94111954 14.59869424 -17.94111954 14.59869424 -14.60400391 11.25463867 C-13.69908203 10.3477832 -13.69908203 10.3477832 -12.77587891 9.42260742 C-12.16744141 8.81803711 -11.55900391 8.2134668 -10.93212891 7.59057617 C-10.30822266 6.96280273 -9.68431641 6.3350293 -9.04150391 5.68823242 C-8.44337891 5.09139648 -7.84525391 4.49456055 -7.22900391 3.87963867 C-6.42221191 3.07453857 -6.42221191 3.07453857 -5.59912109 2.25317383 C-3.67028217 0.5004694 -2.62906652 -0.04147442 0 0 Z " fill="#FC6969" transform="translate(133.18212890625,346.034423828125)"/>
<path d="M0 0 C3.76488042 1.72154788 6.15063897 3.99234114 9 7 C7.394844 11.01722645 4.56330958 13.68465392 1.52807617 16.65136719 C0.97010849 17.20480804 0.41214081 17.7582489 -0.16273499 18.32846069 C-1.37297913 19.52776151 -2.58549004 20.72477824 -3.79999733 21.91976166 C-5.726325 23.81586604 -7.64584788 25.71862172 -9.56364441 27.62335205 C-15.01710423 33.03712105 -20.48306802 38.43820138 -25.95239258 43.8359375 C-29.3002971 47.14094614 -32.64071588 50.45337743 -35.97693443 53.77017975 C-37.2453861 55.02811285 -38.51674084 56.28312599 -39.79111671 57.53505707 C-48.92985226 66.43846825 -48.92985226 66.43846825 -56 77 C-59.34335968 73.80200378 -60.17907596 71.88472966 -60.3125 67.25 C-60.34988281 66.40953125 -60.38726562 65.5690625 -60.42578125 64.703125 C-59.47293103 58.65383736 -54.61499219 54.32850186 -50.40527344 50.17822266 C-49.85848938 49.63114655 -49.31170532 49.08407043 -48.74835205 48.52041626 C-46.95673045 46.73017757 -45.1581509 44.94711012 -43.359375 43.1640625 C-42.10912101 41.91754233 -40.85931058 40.67057713 -39.60992432 39.42318726 C-36.33298272 36.153853 -33.05007796 32.89057176 -29.76586914 29.62854004 C-26.41058308 26.29377498 -23.06100716 22.95328516 -19.7109375 19.61328125 C-13.14618201 13.06992451 -6.57510874 6.53295202 0 0 Z " fill="#E95051" transform="translate(76,400)"/>
<path d="M0 0 C2.4314593 0.88984564 3.66435324 1.94225957 5.50471497 3.75508118 C6.1483046 4.38275894 6.79189423 5.01043671 7.45498657 5.65713501 C8.13743942 6.33938644 8.81989227 7.02163788 9.52302551 7.7245636 C10.58350349 8.77362129 10.58350349 8.77362129 11.66540527 9.84387207 C13.15607139 11.32373843 14.64278405 12.80759621 16.12580872 14.29512024 C18.40469304 16.57497897 20.70406588 18.83267853 23.00544739 21.08979797 C24.45010549 22.52925093 25.893509 23.96996436 27.33552551 25.4120636 C28.02809952 26.08824234 28.72067352 26.76442108 29.43423462 27.46109009 C30.06206345 28.09822433 30.68989227 28.73535858 31.33674622 29.39179993 C31.89537857 29.94837784 32.45401093 30.50495575 33.02957153 31.07839966 C34.09724426 32.76753235 34.09724426 32.76753235 33.88085938 34.84472656 C32.80356668 37.48814753 31.19459194 39.03052015 29.15974426 41.01753235 C28.44947083 41.7239386 27.73919739 42.43034485 27.00740051 43.15815735 C25.09724426 44.76753235 25.09724426 44.76753235 23.09724426 44.76753235 C21.67390442 43.32295227 21.67390442 43.32295227 20.01130676 41.3105011 C16.05585511 36.65961918 11.8122268 32.37017409 7.47224426 28.08003235 C6.73490051 27.34720032 5.99755676 26.61436829 5.23786926 25.85932922 C3.81984302 24.45019741 2.40055675 23.04233204 0.97981262 21.63594055 C-0.60529012 20.06276051 -2.17979 18.48012138 -3.75041199 16.89253235 C-6.00960121 14.66204426 -8.39051346 12.70554782 -10.90275574 10.76753235 C-9.51230584 7.66311204 -7.88703976 5.40188805 -5.52775574 2.95503235 C-4.94252136 2.32983704 -4.35728699 1.70464172 -3.75431824 1.0605011 C-1.90275574 -0.23246765 -1.90275574 -0.23246765 0 0 Z " fill="#E95051" transform="translate(98.90275573730469,379.2324676513672)"/>
<path d="M0 0 C0.61230232 7.05678429 0.61230232 7.05678429 -2.125 11.2734375 C-3.064302 12.32461254 -4.02366735 13.35812648 -5 14.375 C-6.00773623 15.48977853 -7.01423424 16.60567756 -8.01953125 17.72265625 C-8.52178223 18.26937988 -9.0240332 18.81610352 -9.54150391 19.37939453 C-11.69634844 21.77374639 -13.69109203 24.28562816 -15.6875 26.8125 C-16.33074219 27.62332031 -16.97398437 28.43414062 -17.63671875 29.26953125 C-18.08660156 29.84058594 -18.53648437 30.41164063 -19 31 C-23.1201849 29.62660503 -24.79225917 26.72421684 -27.3125 23.375 C-30.29794306 19.45195125 -33.23778578 15.65724326 -36.6875 12.125 C-39.72724442 8.01723726 -39.52424847 5.98036049 -39 1 C-37.36417969 1.24169922 -37.36417969 1.24169922 -35.6953125 1.48828125 C-30.42226241 2.14421989 -25.1828151 2.18391848 -19.875 2.1875 C-18.43060547 2.20586914 -18.43060547 2.20586914 -16.95703125 2.22460938 C-11.00885473 2.23688209 -5.69591115 0 0 0 Z " fill="#EDB785" transform="translate(335,238)"/>
<path d="M0 0 C2.64 0 5.28 0 8 0 C8.01981934 1.06323486 8.03963867 2.12646973 8.06005859 3.22192383 C8.13688483 7.21611813 8.22547438 11.20998409 8.31738281 15.20385742 C8.35535782 16.92319189 8.39026177 18.64259734 8.421875 20.36206055 C8.77962748 39.58566647 11.01658057 53.41117948 23 69 C23.66 69.99 24.32 70.98 25 72 C16.06117801 69.5184375 8.95560335 62.44480508 4.28637695 54.5222168 C-1.31355444 43.54235511 -0.3560103 31.20893228 -0.1875 19.25 C-0.17242104 17.37761497 -0.15873834 15.50521815 -0.14648438 13.6328125 C-0.11374439 9.08824566 -0.06214095 4.54425601 0 0 Z " fill="#EFB986" transform="translate(274,151)"/>
<path d="M0 0 C3.78002365 3.67693209 7.2397114 7.52154423 10.625 11.5625 C11.10195313 12.12646484 11.57890625 12.69042969 12.0703125 13.27148438 C13.39042072 14.83911289 14.69575051 16.41915271 16 18 C16.62648438 18.73089844 17.25296875 19.46179688 17.8984375 20.21484375 C18.26195312 20.80394531 18.62546875 21.39304687 19 22 C17.65856219 26.02431343 15.00434786 27.36724604 11.625 29.625 C11.03460938 30.03234375 10.44421875 30.4396875 9.8359375 30.859375 C7.2443355 32.62213131 4.98789278 34.00403574 2 35 C-0.02489258 31.07370707 -2.0366274 27.14103908 -4.03637695 23.2019043 C-4.71865797 21.8625037 -5.40451636 20.52491919 -6.09399414 19.18920898 C-7.08382698 17.27011623 -8.06065615 15.34488302 -9.03515625 13.41796875 C-9.6269165 12.26063232 -10.21867676 11.1032959 -10.82836914 9.91088867 C-12 7 -12 7 -11 4 C-8.49609375 2.83203125 -8.49609375 2.83203125 -5.4375 1.8125 C-4.42558594 1.46832031 -3.41367187 1.12414062 -2.37109375 0.76953125 C-1.58863281 0.51558594 -0.80617188 0.26164062 0 0 Z " fill="#D2D6DE" transform="translate(285,257)"/>
<path d="M0 0 C1.41791408 0.45445964 2.83428046 0.91374944 4.25 1.375 C5.43335938 1.75785156 5.43335938 1.75785156 6.640625 2.1484375 C8.86627958 2.95173667 10.90931672 3.89711662 13 5 C12.38353163 9.00225317 11.10770326 12.13536305 9.27734375 15.73828125 C8.73916016 16.80498047 8.20097656 17.87167969 7.64648438 18.97070312 C7.08251953 20.07349609 6.51855469 21.17628906 5.9375 22.3125 C5.36966797 23.43462891 4.80183594 24.55675781 4.21679688 25.71289062 C2.81657023 28.47804408 1.41081335 31.24023716 0 34 C-3.28247431 34 -3.82566967 33.66923327 -6.35546875 31.8125 C-7.28842773 31.13574219 -7.28842773 31.13574219 -8.24023438 30.4453125 C-8.88283203 29.96835937 -9.52542969 29.49140625 -10.1875 29 C-10.84169922 28.52304687 -11.49589844 28.04609375 -12.16992188 27.5546875 C-13.78457682 26.37610725 -15.39290497 25.18886818 -17 24 C-16.13736936 19.58763237 -13.6661949 16.97029143 -10.75 13.6875 C-6.91028797 9.26907391 -3.27781276 4.86020512 0 0 Z " fill="#D2D6DF" transform="translate(344,257)"/>
<path d="M0 0 C0.66 0.33 1.32 0.66 2 1 C1.18208984 1.62261719 1.18208984 1.62261719 0.34765625 2.2578125 C-11.55409152 11.9826594 -19.85351232 26.69153289 -22 42 C-21.92164822 44.33434276 -21.81566707 46.66786185 -21.6875 49 C-21.60706202 55.40822593 -21.60706202 55.40822593 -23.296875 57.953125 C-24.9375 59.25 -24.9375 59.25 -28 61 C-28.33 61.66 -28.66 62.32 -29 63 C-29.99 63 -30.98 63 -32 63 C-32.62270972 42.17381939 -28.7173775 25.21728895 -14.1875 9.75 C-10.01754065 5.74324845 -5.30070611 2.35477465 0 0 Z " fill="#3B4856" transform="translate(289,81)"/>
<path d="M0 0 C2.6875 0.9375 2.6875 0.9375 7.6875 6.9375 C0.0975 14.5275 -7.4925 22.1175 -15.3125 29.9375 C-22.3125 23.9375 -22.3125 23.9375 -24.3125 20.9375 C-21.50401323 18.10431071 -18.692265 15.27440379 -15.87744141 12.44750977 C-14.92015619 11.48519305 -13.96377006 10.52198108 -13.00830078 9.55786133 C-11.63550212 8.17294555 -10.25920528 6.79150009 -8.8828125 5.41015625 C-8.05539551 4.57750244 -7.22797852 3.74484863 -6.37548828 2.88696289 C-4.05436649 0.69357147 -3.19446014 -0.08633676 0 0 Z " fill="#E85051" transform="translate(133.3125,346.0625)"/>
<path d="M0 0 C2.64 0 5.28 0 8 0 C8.84126612 4.06089895 9.67161887 8.12395474 10.5 12.1875 C10.73847656 13.33798828 10.97695313 14.48847656 11.22265625 15.67382812 C11.44824219 16.78564453 11.67382812 17.89746094 11.90625 19.04296875 C12.11572266 20.06414795 12.32519531 21.08532715 12.54101562 22.13745117 C13 25 13 25 13 30 C7.39 30 1.78 30 -4 30 C-4 21 -4 21 -3.125 16.40625 C-2.94453125 15.43945312 -2.7640625 14.47265625 -2.578125 13.4765625 C-2.38734375 12.49429687 -2.1965625 11.51203125 -2 10.5 C-1.80921875 9.48679687 -1.6184375 8.47359375 -1.421875 7.4296875 C-0.95435389 4.95182561 -0.48026672 2.47541732 0 0 Z " fill="#E54F50" transform="translate(311,316)"/>
<path d="M0 0 C0.66 0.33 1.32 0.66 2 1 C1.34 1.66 0.68 2.32 0 3 C0.29741091 6.87702009 1.41290254 8.92955601 4.0625 11.70703125 C4.68979004 12.37210693 5.31708008 13.03718262 5.96337891 13.72241211 C6.63546387 14.41214111 7.30754883 15.10187012 8 15.8125 C8.68626465 16.52736572 9.3725293 17.24223145 10.07958984 17.97875977 C20.49076429 28.74008582 31.75361812 37.91472597 45 45 C45 45.66 45 46.32 45 47 C27.60206315 41.92675059 12.84922924 29.5730166 -0.3125 17.625 C-0.97789795 17.02977539 -1.6432959 16.43455078 -2.32885742 15.82128906 C-2.93834229 15.2537793 -3.54782715 14.68626953 -4.17578125 14.1015625 C-4.72145752 13.59963379 -5.26713379 13.09770508 -5.8293457 12.58056641 C-7 11 -7 11 -7 7 C-5.46875 5.078125 -5.46875 5.078125 -3.5 3.25 C-2.8503125 2.63640625 -2.200625 2.0228125 -1.53125 1.390625 C-1.0259375 0.93171875 -0.520625 0.4728125 0 0 Z " fill="#CED2DB" transform="translate(212,287)"/>
<path d="M0 0 C2.41199502 1.12496211 3.5693411 2.41284825 5.2265625 4.484375 C5.74734375 5.12503906 6.268125 5.76570313 6.8046875 6.42578125 C7.19140625 6.91949219 7.578125 7.41320312 7.9765625 7.921875 C4.30989583 11.58854167 0.64322917 15.25520833 -3.0234375 18.921875 C-3.63832031 18.18130859 -3.63832031 18.18130859 -4.265625 17.42578125 C-5.07386719 16.46478516 -5.07386719 16.46478516 -5.8984375 15.484375 C-6.43210937 14.84628906 -6.96578125 14.20820313 -7.515625 13.55078125 C-8.9457132 11.81382496 -8.9457132 11.81382496 -11.0234375 10.921875 C-9.6329876 7.81745469 -8.00772152 5.5562307 -5.6484375 3.109375 C-5.06320313 2.48417969 -4.47796875 1.85898437 -3.875 1.21484375 C-2.0234375 -0.078125 -2.0234375 -0.078125 0 0 Z " fill="#D0373E" transform="translate(99.0234375,379.078125)"/>
<path d="M0 0 C2.8175319 1.92778498 5.06550869 4.1175523 7.375 6.625 C6.385 8.11 6.385 8.11 5.375 9.625 C2.40625 9.98828125 2.40625 9.98828125 -1.125 9.9375 C-2.87296875 9.93169922 -2.87296875 9.93169922 -4.65625 9.92578125 C-7.625 9.625 -7.625 9.625 -9.625 7.625 C-9.625 4.625 -9.625 4.625 -8.26953125 3.16796875 C-3.3423913 -0.47748447 -3.3423913 -0.47748447 0 0 Z " fill="#D1373F" transform="translate(316.625,291.375)"/>
<path d="M0 0 C5.15037594 2.57518797 5.15037594 2.57518797 7 5 C7.68963145 8.39068796 7.59605762 11.59705283 7 15 C4.625 18.125 4.625 18.125 2 20 C1.34 20 0.68 20 0 20 C0 13.4 0 6.8 0 0 Z " fill="#D09A67" transform="translate(370,159)"/>
<path d="M0 0 C0 6.27 0 12.54 0 19 C-5 17 -5 17 -6.3125 15.375 C-7.32800762 11.86688277 -7.71543095 8.57715474 -7 5 C-3.04166667 0 -3.04166667 0 0 0 Z " fill="#DBA16B" transform="translate(259,160)"/>
<path d="M0 0 C2.64 0.33 5.28 0.66 8 1 C8 5.95 8 10.9 8 16 C6.35 14.35 4.7 12.7 3 11 C2.401875 10.566875 1.80375 10.13375 1.1875 9.6875 C-0.87629308 6.75474142 -0.17172923 3.49182767 0 0 Z " fill="#DDA26C" transform="translate(296,239)"/>
<path d="M0 0 C1.94883138 2.92324707 2.48079727 4.51083018 3.125 7.875 C3.29257812 8.71804688 3.46015625 9.56109375 3.6328125 10.4296875 C3.99878845 12.99151915 4.06482904 15.41609989 4 18 C2.02 18 0.04 18 -2 18 C-1.85860519 15.74971671 -1.71171997 13.49977794 -1.5625 11.25 C-1.48128906 9.99703125 -1.40007812 8.7440625 -1.31640625 7.453125 C-1.07484478 4.81682447 -0.75716066 2.51962706 0 0 Z " fill="#EB6161" transform="translate(320,328)"/>
<path d="M0 0 C5.61 0 11.22 0 17 0 C17 0.33 17 0.66 17 1 C14.75023648 1.64665663 12.50018033 2.29229523 10.25 2.9375 C8.99703125 3.29714844 7.7440625 3.65679687 6.453125 4.02734375 C3.97438281 4.72554149 1.50339838 5.39943726 -1 6 C-0.67 4.02 -0.34 2.04 0 0 Z " fill="#404D5C" transform="translate(303,68)"/>
<path d="M0 0 C3.79588866 0.54226981 5.47211993 2.20127563 8 5 C7.01 6.485 7.01 6.485 6 8 C3.625 7.6875 3.625 7.6875 1 7 C-1 4 -1 4 -0.625 1.8125 C-0.41875 1.214375 -0.2125 0.61625 0 0 Z " fill="#E74F50" transform="translate(316,293)"/>
<path d="M0 0 C0 0.66 0 1.32 0 2 C-2.1171875 3.54296875 -2.1171875 3.54296875 -4.875 5.1875 C-5.77992188 5.73792969 -6.68484375 6.28835937 -7.6171875 6.85546875 C-8.40351563 7.23316406 -9.18984375 7.61085938 -10 8 C-10.66 7.67 -11.32 7.34 -12 7 C-8.8380314 3.47318887 -4.98182478 0 0 0 Z " fill="#3184E0" transform="translate(237,33)"/>
</svg>
